<svg xmlns="http://www.w3.org/2000/svg" width="48" height="48" viewBox="0 0 48 48">
  <!-- Purple rounded square background -->
  <rect width="48" height="48" rx="10" ry="10" fill="#7C3AED"/>

  <!-- Cookie body with natural bite out of upper-right -->
  <path d="M24 10
           C27 9.8 30 10.8 32.2 12.2
           C31 13.2 30.5 15 31.2 16.4
           C32 17.8 33.8 18.3 35.2 17.5
           C37 19.4 38.2 21.8 38.2 24.5
           C38.2 27 37.4 29.2 36 31
           C35.4 29.8 34.2 29.2 32.8 29.4
           C31.2 29.7 30.4 31 30.6 32.5
           C29 34.2 26.8 35.4 24.2 35.5
           C21.5 35.6 19.2 34.8 17.2 33.2
           C15 31.4 13.8 28.8 13.5 26
           C13.2 22.8 14.2 19.8 16 17.4
           C17.8 15 20 13.2 22.6 12
           C23 11.2 23.5 10.4 24 10Z"
        fill="white"/>

  <!-- Chocolate chips - slightly different sizes for natural look -->
  <circle cx="21" cy="20" r="1.8" fill="#7C3AED"/>
  <circle cx="27" cy="23.5" r="1.6" fill="#7C3AED"/>
  <circle cx="22" cy="28.5" r="1.7" fill="#7C3AED"/>
  <circle cx="29" cy="30" r="1.4" fill="#7C3AED"/>

  <!-- Subtle texture marks on cookie surface -->
  <circle cx="18" cy="24" r="0.7" fill="#7C3AED" opacity="0.15"/>
  <circle cx="25.5" cy="17" r="0.6" fill="#7C3AED" opacity="0.15"/>
  <circle cx="32" cy="25" r="0.5" fill="#7C3AED" opacity="0.15"/>
</svg>