<svg xmlns="http://www.w3.org/2000/svg" width="128" height="128" viewBox="0 0 128 128">
  <defs>
    <!-- Background gradient -->
    <linearGradient id="bgGrad" x1="0%" y1="0%" x2="100%" y2="100%">
      <stop offset="0%" style="stop-color:#7C3AED"/>
      <stop offset="100%" style="stop-color:#6D28D9"/>
    </linearGradient>

    <!-- Subtle drop shadow for cookie -->
    <filter id="cookieShadow" x="-10%" y="-10%" width="130%" height="130%">
      <feDropShadow dx="0" dy="2" stdDeviation="3" flood-color="#4C1D95" flood-opacity="0.35"/>
    </filter>

  </defs>

  <!-- Purple gradient rounded square background -->
  <rect width="128" height="128" rx="26" ry="26" fill="url(#bgGrad)"/>

  <!-- Subtle inner highlight on background -->
  <rect width="128" height="128" rx="26" ry="26" fill="none" stroke="white" stroke-opacity="0.08" stroke-width="1"/>

  <!-- Cookie body - organic shape with bite out of upper-right -->
  <g filter="url(#cookieShadow)">
    <path d="M66 25
             C71 24.5 76 25.8 80 28
             C82.5 29.3 84.8 31.2 86.5 33.4
             C85 34.8 84.2 37 84.8 39.2
             C85.5 41.8 87.8 43.4 90.3 43.5
             C91.2 44 91.8 44.6 92.4 45.2
             C95 49 96.8 53.6 97 58.5
             C97.2 61.5 96.6 64.4 95.5 67
             C93.8 65.8 91.4 65.4 89.2 66.2
             C86.5 67.2 85 69.8 85.2 72.6
             C85.3 74 85.8 75.2 86.6 76.2
             C83.8 80.5 79.8 83.8 75 85.8
             C72.2 87 69.2 87.8 66 88
             C63.5 88.2 61 88 58.5 87.4
             C55 86.6 51.8 85 49 82.8
             C45 79.5 42 75 40.2 70
             C38.8 66 38.2 61.6 38.5 57.2
             C39 51 41.2 45.2 44.8 40.6
             C47 37.8 49.8 35.4 52.8 33.6
             C55.5 32 58.5 30.8 61.6 30
             C61.2 28 62 26 64 25.5
             C64.7 25.2 65.4 25.1 66 25Z"
          fill="white"/>

    <!-- Very subtle warm tint overlay on cookie for depth -->
    <path d="M66 25
             C71 24.5 76 25.8 80 28
             C82.5 29.3 84.8 31.2 86.5 33.4
             C85 34.8 84.2 37 84.8 39.2
             C85.5 41.8 87.8 43.4 90.3 43.5
             C91.2 44 91.8 44.6 92.4 45.2
             C95 49 96.8 53.6 97 58.5
             C97.2 61.5 96.6 64.4 95.5 67
             C93.8 65.8 91.4 65.4 89.2 66.2
             C86.5 67.2 85 69.8 85.2 72.6
             C85.3 74 85.8 75.2 86.6 76.2
             C83.8 80.5 79.8 83.8 75 85.8
             C72.2 87 69.2 87.8 66 88
             C63.5 88.2 61 88 58.5 87.4
             C55 86.6 51.8 85 49 82.8
             C45 79.5 42 75 40.2 70
             C38.8 66 38.2 61.6 38.5 57.2
             C39 51 41.2 45.2 44.8 40.6
             C47 37.8 49.8 35.4 52.8 33.6
             C55.5 32 58.5 30.8 61.6 30
             C61.2 28 62 26 64 25.5
             C64.7 25.2 65.4 25.1 66 25Z"
          fill="#F5F0FF" opacity="0.35"/>
  </g>

  <!-- Chocolate chips - varied sizes and slight color variation for realism -->
  <ellipse cx="55" cy="48" rx="4.2" ry="3.8" fill="#6D28D9" transform="rotate(-8 55 48)"/>
  <ellipse cx="72" cy="54" rx="3.8" ry="3.5" fill="#6D28D9" transform="rotate(12 72 54)"/>
  <ellipse cx="54" cy="67" rx="4" ry="3.6" fill="#6D28D9" transform="rotate(-15 54 67)"/>
  <ellipse cx="68" cy="76" rx="3.5" ry="3.2" fill="#6D28D9" transform="rotate(5 68 76)"/>
  <ellipse cx="80" cy="62" rx="3.2" ry="2.8" fill="#6D28D9" transform="rotate(20 80 62)"/>
  <ellipse cx="62" cy="38" rx="3" ry="2.6" fill="#6D28D9" transform="rotate(-5 62 38)"/>

  <!-- Chip highlights (tiny bright spots on each chip for gloss) -->
  <circle cx="53.8" cy="46.8" r="1.2" fill="white" opacity="0.18"/>
  <circle cx="70.8" cy="52.8" r="1.1" fill="white" opacity="0.18"/>
  <circle cx="52.8" cy="65.8" r="1.15" fill="white" opacity="0.18"/>
  <circle cx="66.8" cy="74.8" r="1" fill="white" opacity="0.18"/>
  <circle cx="78.8" cy="60.8" r="0.95" fill="white" opacity="0.18"/>
  <circle cx="61" cy="37" r="0.9" fill="white" opacity="0.18"/>

  <!-- Surface texture - subtle crackle marks and pores -->
  <circle cx="48" cy="56" r="1.5" fill="#7C3AED" opacity="0.12"/>
  <circle cx="76" cy="44" r="1.2" fill="#7C3AED" opacity="0.1"/>
  <circle cx="60" cy="58" r="1" fill="#7C3AED" opacity="0.1"/>
  <circle cx="85" cy="54" r="0.9" fill="#7C3AED" opacity="0.08"/>
  <circle cx="44" cy="64" r="1.1" fill="#7C3AED" opacity="0.1"/>
  <circle cx="70" cy="68" r="0.8" fill="#7C3AED" opacity="0.08"/>
  <circle cx="50" cy="78" r="1" fill="#7C3AED" opacity="0.08"/>
  <circle cx="62" cy="82" r="0.9" fill="#7C3AED" opacity="0.07"/>

  <!-- Crumb details near the bite area -->
  <circle cx="89" cy="36" r="1.8" fill="white" opacity="0.65"/>
  <circle cx="93" cy="40" r="1.2" fill="white" opacity="0.5"/>
  <circle cx="87" cy="31" r="1.3" fill="white" opacity="0.5"/>

  <!-- Subtle edge definition on the cookie -->
  <path d="M66 25
           C71 24.5 76 25.8 80 28
           C82.5 29.3 84.8 31.2 86.5 33.4
           C85 34.8 84.2 37 84.8 39.2
           C85.5 41.8 87.8 43.4 90.3 43.5
           C91.2 44 91.8 44.6 92.4 45.2
           C95 49 96.8 53.6 97 58.5
           C97.2 61.5 96.6 64.4 95.5 67
           C93.8 65.8 91.4 65.4 89.2 66.2
           C86.5 67.2 85 69.8 85.2 72.6
           C85.3 74 85.8 75.2 86.6 76.2
           C83.8 80.5 79.8 83.8 75 85.8
           C72.2 87 69.2 87.8 66 88
           C63.5 88.2 61 88 58.5 87.4
           C55 86.6 51.8 85 49 82.8
           C45 79.5 42 75 40.2 70
           C38.8 66 38.2 61.6 38.5 57.2
           C39 51 41.2 45.2 44.8 40.6
           C47 37.8 49.8 35.4 52.8 33.6
           C55.5 32 58.5 30.8 61.6 30
           C61.2 28 62 26 64 25.5
           C64.7 25.2 65.4 25.1 66 25Z"
        fill="none" stroke="#7C3AED" stroke-width="0.5" stroke-opacity="0.15"/>
</svg>